<?xml version="1.0" standalone="no"?>
<!DOCTYPE svg PUBLIC "-//W3C//DTD SVG 20010904//EN"
 "http://www.w3.org/TR/2001/REC-SVG-20010904/DTD/svg10.dtd">
<svg version="1.0" xmlns="http://www.w3.org/2000/svg"
 width="7466.000000pt" height="8857.000000pt" viewBox="0 0 7466.000000 8857.000000"
 preserveAspectRatio="xMidYMid meet">

<g transform="translate(0.000000,8857.000000) scale(0.100000,-0.100000)"
fill="#000000" stroke="none">
<path d="M37670 79704 c-367 -31 -600 -76 -877 -165 -1040 -337 -1818 -1129
-2177 -2214 -90 -271 -93 -290 -106 -700 -6 -203 -16 -509 -21 -680 -16 -512
-23 -2526 -10 -3115 25 -1164 68 -2054 146 -3065 327 -4219 1189 -7354 2355
-8568 264 -276 537 -443 820 -503 112 -23 296 -23 410 1 710 147 1363 996
1895 2460 1032 2845 1460 7642 1195 13410 l-19 420 -40 137 c-234 799 -659
1431 -1271 1892 -587 442 -1284 679 -2035 691 -121 1 -240 1 -265 -1z"/>
<path d="M42884 76399 c3 -90 9 -591 12 -1114 8 -1130 -5 -1797 -51 -2790
-230 -4872 -1159 -9299 -2516 -11985 -895 -1772 -1892 -2601 -2847 -2364
-1244 308 -2336 2396 -3136 5994 -673 3029 -1123 6907 -1381 11919 -8 162 -17
296 -18 298 -3 3 -7198 -2525 -7204 -2531 -2 -2 73 -3449 167 -7662 93 -4212
170 -7702 170 -7754 l-1 -95 -60 155 c-234 602 -533 1493 -847 2525 -173 565
-287 954 -692 2350 -338 1166 -534 1832 -704 2385 -505 1650 -933 2847 -1363
3810 -112 251 -285 610 -294 610 -30 0 -795 -353 -1204 -556 -3570 -1769
-5928 -4011 -7478 -7110 -772 -1543 -1376 -3332 -1946 -5764 -236 -1010 -405
-1807 -836 -3950 -255 -1266 -326 -1600 -440 -2065 -206 -841 -413 -1563 -963
-3350 -154 -500 -325 -1063 -381 -1250 -323 -1094 -505 -1856 -584 -2442 l-14
-102 69 -113 c518 -850 1282 -1672 2258 -2429 2354 -1826 6001 -3334 10660
-4408 10000 -2304 23353 -2324 33255 -50 4116 945 7419 2233 9770 3810 981
658 1791 1369 2425 2129 230 277 491 642 670 939 l74 124 -27 159 c-219 1279
-2134 9296 -3227 13509 -404 1557 -616 2310 -766 2715 -1122 3054 -2704 5413
-4856 7241 -1191 1012 -2599 1878 -4174 2568 -247 109 -738 311 -774 320 l-25
6 -1874 -6063 c-1030 -3335 -1877 -6067 -1882 -6072 -4 -5 -6 38 -3 95 9 172
514 15735 514 15823 l0 81 -3728 1304 c-2050 717 -3733 1306 -3741 1309 -11 4
-13 -21 -7 -159z m-2391 -24856 c-2 -76 -10 -772 -18 -1548 -8 -775 -18 -1519
-21 -1652 l-6 -243 -369 0 c-290 0 -368 3 -364 13 2 6 6 114 10 240 l6 227
-635 0 -635 0 -202 -240 -201 -240 -420 0 -419 0 23 29 c13 16 723 822 1578
1790 l1555 1761 61 0 60 0 -3 -137z m-6047 102 c346 -60 610 -246 751 -530 29
-57 73 -175 73 -194 0 -9 -649 -476 -653 -470 -1 2 -26 53 -56 112 -118 235
-273 355 -485 376 -636 61 -1413 -580 -1601 -1321 -145 -574 181 -959 731
-863 209 37 487 163 732 332 35 23 67 43 71 43 5 0 41 -129 80 -287 40 -159
74 -295 77 -304 11 -38 -420 -281 -641 -362 -298 -108 -565 -155 -825 -144
-569 24 -927 305 -1027 806 -25 123 -22 368 5 521 72 398 266 819 551 1195 97
129 407 439 536 536 405 307 853 505 1260 558 116 14 324 12 421 -4z m3144
-15 c362 -90 606 -301 724 -628 14 -40 26 -77 26 -81 0 -9 -649 -476 -653
-470 -1 2 -23 47 -50 100 -82 166 -178 274 -299 335 -151 76 -394 75 -628 -2
-617 -206 -1166 -884 -1197 -1479 -27 -529 381 -791 942 -604 160 53 416 187
566 296 26 18 51 33 57 33 5 0 42 -129 81 -287 40 -159 74 -295 77 -304 12
-43 -454 -298 -691 -379 -279 -95 -442 -124 -710 -124 -169 0 -216 4 -303 22
-475 103 -748 402 -803 878 -60 525 243 1278 728 1805 449 490 1061 829 1638
908 118 16 397 6 495 -19z m5370 -966 c277 -547 506 -992 511 -987 5 5 201
438 437 963 l428 955 363 3 c213 1 361 -1 359 -7 -1 -5 -361 -808 -798 -1785
l-795 -1776 -35 2 -35 3 -500 992 c-275 545 -503 994 -506 997 -3 4 -201 -430
-440 -964 l-434 -970 -357 0 c-230 0 -358 4 -358 10 0 5 349 790 776 1742 428
953 786 1752 796 1776 17 37 23 42 53 42 l33 0 502 -996z m-1743 -3597 c93
-24 224 -119 319 -229 60 -69 137 -229 169 -348 74 -279 49 -580 -81 -970
-171 -515 -503 -923 -979 -1203 -66 -38 -124 -73 -129 -78 -12 -11 299 -835
451 -1194 169 -398 474 -1011 482 -969 19 104 1041 4886 1046 4894 7 12 1231
14 1238 3 2 -5 -180 -867 -404 -1918 -434 -2029 -464 -2173 -503 -2446 -55
-377 -70 -565 -68 -859 1 -151 3 -294 4 -318 l3 -43 -848 -561 c-466 -308
-849 -559 -851 -557 -2 2 45 229 104 504 l107 500 -333 5 -333 5 -117 160
c-225 309 -440 649 -611 965 -177 327 -426 852 -594 1248 -71 169 -83 191 -96
179 -11 -11 -159 -702 -192 -897 -75 -438 -104 -730 -105 -1055 -1 -137 2
-282 6 -321 l8 -71 -851 -562 c-468 -309 -853 -561 -854 -559 -2 2 34 181 81
397 46 217 84 398 84 403 0 4 -161 8 -358 8 l-358 0 -95 127 c-120 164 -351
509 -455 683 -237 396 -509 942 -765 1540 -50 117 -93 205 -101 205 -23 0
-188 -784 -237 -1130 -54 -374 -65 -518 -66 -820 0 -154 2 -306 5 -337 l5 -57
-849 -561 c-467 -308 -850 -559 -852 -557 -4 3 1409 6645 1422 6690 5 16 74
17 1274 17 1200 0 1271 -1 1327 -18 166 -52 345 -232 427 -430 60 -144 78
-234 83 -427 6 -198 -1 -261 -47 -451 -124 -504 -349 -886 -703 -1190 -120
-103 -299 -228 -414 -288 l-71 -37 145 -382 c187 -497 274 -714 390 -977 91
-206 316 -662 405 -820 l42 -75 8 40 c41 192 1090 5115 1095 5133 l5 22 1267
0 c1024 0 1276 -3 1318 -13z m-13940 -114 c-3 -16 -195 -914 -427 -1997 -231
-1083 -419 -1970 -418 -1971 2 -2 245 267 542 596 533 594 539 600 574 597
l35 -3 286 -597 c157 -328 288 -594 290 -592 3 3 197 901 431 1997 l426 1992
622 3 c383 1 622 -1 622 -7 0 -7 -1127 -5305 -1220 -5739 l-12 -52 -594 2
-595 3 -319 674 c-175 370 -320 675 -323 677 -2 2 -275 -302 -608 -675 l-604
-680 -592 0 c-552 -1 -593 0 -593 16 0 15 1216 5741 1225 5771 4 9 139 12 631
12 l627 0 -6 -27z m6823 21 c0 -10 -1232 -5789 -1234 -5792 -2 -1 -284 -1
-628 0 l-625 3 202 955 c111 525 207 976 212 1003 l11 47 -388 0 -388 0 -20
-47 c-20 -48 -93 -526 -126 -823 -44 -389 -47 -729 -11 -901 6 -24 -36 -53
-846 -588 -468 -309 -853 -560 -855 -559 -6 7 857 4047 892 4171 262 949 807
1814 1422 2254 96 69 273 164 397 213 174 70 154 69 1118 69 477 1 867 -2 867
-5z m12605 -5 c342 -30 578 -139 800 -370 227 -237 354 -546 422 -1029 25
-179 25 -724 0 -930 -50 -410 -147 -842 -279 -1235 -222 -663 -536 -1205 -917
-1585 -382 -382 -766 -581 -1213 -629 -128 -14 -599 -14 -730 0 -448 48 -788
293 -999 717 -174 353 -254 884 -220 1452 20 319 42 468 113 765 231 970 524
1604 970 2106 264 296 625 546 937 649 123 40 317 79 449 89 158 12 530 12
667 0z m4939 -17 c122 -57 275 -198 339 -314 112 -200 158 -436 137 -697 -11
-140 -66 -379 -126 -552 -41 -119 -141 -331 -204 -434 -174 -284 -454 -554
-770 -740 -63 -38 -119 -72 -124 -76 -9 -8 152 -444 329 -894 280 -710 596
-1331 956 -1875 65 -99 119 -183 119 -185 0 -3 -294 -5 -653 -5 l-653 0 -111
153 c-454 626 -774 1207 -1174 2132 -66 152 -122 270 -129 270 -9 0 -29 -73
-62 -220 -148 -678 -205 -1028 -239 -1485 -11 -149 -7 -538 7 -605 l6 -31
-852 -562 c-469 -310 -854 -561 -856 -560 -2 3 1389 6548 1421 6686 l5 22
1293 -2 1292 -3 49 -23z"/>
<path d="M39380 49677 l-403 -482 383 -3 c211 -1 385 0 387 2 4 3 41 957 38
963 -1 2 -183 -214 -405 -480z"/>
<path d="M39620 45873 c0 -3 -66 -314 -146 -691 -80 -376 -143 -686 -140 -689
7 -7 128 34 216 74 180 82 390 257 493 411 94 141 157 312 179 489 16 126 1
290 -34 359 l-24 49 -272 3 c-150 1 -272 -1 -272 -5z"/>
<path d="M35652 45738 c-43 -177 -284 -1339 -279 -1344 19 -19 268 92 391 173
101 67 258 223 323 321 93 139 161 335 178 512 10 102 -9 260 -39 325 l-25 55
-269 0 -270 0 -10 -42z"/>
<path d="M32475 45739 c-274 -144 -543 -446 -742 -834 -81 -159 -183 -408
-190 -466 l-6 -39 381 0 381 0 11 53 c6 28 68 322 139 652 106 501 126 605
117 633 -5 17 -14 32 -20 32 -6 0 -38 -14 -71 -31z"/>
<path d="M46020 45737 c-193 -70 -341 -182 -508 -382 -322 -386 -555 -974
-618 -1565 -22 -209 -23 -574 -1 -736 38 -278 108 -456 220 -561 84 -78 141
-97 287 -96 208 2 322 65 504 276 220 258 419 636 567 1077 113 339 154 539
179 865 25 314 -31 665 -138 870 -49 94 -146 190 -237 235 -93 45 -164 50
-255 17z"/>
<path d="M50000 45774 c0 -3 -66 -314 -146 -690 -80 -377 -144 -688 -141 -691
17 -17 256 86 367 158 260 168 422 390 498 684 23 86 26 120 26 245 0 113 -4
157 -19 200 -36 109 -9 100 -316 100 -148 0 -269 -3 -269 -6z"/>
</g>
</svg>
